<svg width="157" height="23" viewBox="0 0 157 23" fill="none" xmlns="http://www.w3.org/2000/svg">
<path d="M3.9 0.780001V14.092H9.672V17.784H0V0.780001H3.9Z" fill="#454660"/>
<path d="M15.1365 17.862H11.2365V0.858001H15.1365V17.862Z" fill="#454660"/>
<path d="M17.6664 17.862V0.858001H27.3124V4.758H21.5404V7.488H26.2724V11.232H21.5404V17.862H17.6664Z" fill="#454660"/>
<path d="M27.696 20.633L30.9111 3.93576L40.4087 5.76457L39.6713 9.59421L34.0034 8.50283L33.4872 11.1836L38.1083 12.0734L37.4004 15.7499L32.7793 14.86L32.2581 17.5663L37.926 18.6577L37.1935 22.4618L27.696 20.633Z" fill="#454660"/>
<path d="M49.994 7.098C54.05 7.826 56.104 9.828 56.104 12.948C56.104 15.47 53.816 18.096 49.942 18.096C46.9 18.096 44.794 16.484 44.326 16.12L46.952 12.948C47.498 13.364 48.2 14.43 49.942 14.43C51.372 14.43 51.944 13.494 51.996 12.948C52.048 12.584 52.022 11.648 49.37 11.154C49.318 11.154 49.24 11.154 49.214 11.128C45.08 10.4 43 8.398 43 5.304C43 2.756 45.314 0.130001 49.162 0.130001C52.334 0.130001 54.518 1.898 54.856 2.158C54.934 2.262 55.246 2.496 55.246 2.496L52.62 5.642C52.62 5.642 52.282 5.356 52.178 5.278C51.502 4.836 50.904 4.004 49.162 4.004C47.732 4.004 47.134 4.758 47.108 5.304C47.108 5.72 47.108 6.578 49.812 7.072C49.864 7.072 49.942 7.098 49.994 7.098Z" fill="#454660"/>
<path d="M66.2408 3.978C63.5368 3.978 61.3527 6.422 61.3527 9.126C61.3527 11.83 63.5368 14.248 66.2408 14.248C67.6708 14.248 68.9447 13.416 69.8288 12.428L72.7408 15.366C71.1028 17.056 68.7888 18.148 66.2408 18.148C61.2748 18.148 57.2188 14.092 57.2188 9.126C57.2188 4.134 61.2748 0.104 66.2408 0.104C68.7888 0.104 71.1028 1.17 72.7408 2.886L69.8288 5.798C68.9447 4.836 67.6708 3.978 66.2408 3.978Z" fill="#454660"/>
<path d="M74.5 17.862V0.858001H84.172V4.758H78.4V7.488H83.106V11.232H78.4V13.988H84.172V17.862H74.5Z" fill="#454660"/>
<path d="M95.611 10.062V0.780001H99.485V17.784H95.585L90.255 8.554V17.784H86.355V0.780001H90.229L95.611 10.062Z" fill="#454660"/>
<path d="M107.655 0.650001L111.555 0.676001L117.431 16.822L113.791 18.148L112.517 14.664H106.719L105.445 18.148L101.779 16.822L107.655 0.650001ZM108.123 10.764H111.087L109.605 6.682L108.123 10.764Z" fill="#454660"/>
<path d="M130.645 7.254C130.645 9.074 129.865 10.738 128.617 11.908L130.931 15.912L127.551 17.862L125.081 13.572C124.821 13.598 124.535 13.624 124.275 13.624C123.885 13.624 122.767 13.624 122.767 13.624V17.862H118.867V0.858001C118.867 0.858001 122.923 0.858001 124.275 0.858001C127.785 0.858001 130.645 3.718 130.645 7.254ZM124.275 9.724C125.653 9.724 127.005 8.606 127.005 7.254C127.005 5.876 125.653 4.758 124.275 4.758C123.885 4.758 122.767 4.758 122.767 4.758V9.724C122.767 9.724 123.885 9.724 124.275 9.724Z" fill="#454660"/>
<path d="M136.594 17.862H132.693V0.858001H136.594V17.862Z" fill="#454660"/>
<path d="M147.547 0C152.539 0 156.569 4.056 156.569 9.022C156.569 13.988 152.539 18.044 147.547 18.044C142.581 18.044 138.551 13.988 138.551 9.022C138.551 4.056 142.581 0 147.547 0ZM147.547 14.17C150.251 14.17 152.461 11.726 152.461 9.022C152.461 6.318 150.251 3.874 147.547 3.874C144.869 3.874 142.659 6.318 142.659 9.022C142.659 11.726 144.869 14.17 147.547 14.17Z" fill="#454660"/>
</svg>
