<svg width="24" height="24" viewBox="0 0 24 24" fill="none" xmlns="http://www.w3.org/2000/svg">
<rect width="24" height="24" rx="12" transform="matrix(-1 0 0 1 24 0)" fill="#9DCB45"/>
<path d="M15.9459 11.0951H11.7926H8.05256C7.41256 11.0951 7.09256 10.3217 7.54589 9.86839L10.9992 6.41506C11.5526 5.86172 12.4526 5.86172 13.0059 6.41506L14.3192 7.72839L16.4592 9.86839C16.9059 10.3217 16.5859 11.0951 15.9459 11.0951Z" fill="#F6F6F6"/>
<path d="M15.9459 17.0951H11.7926H8.05256C7.41256 17.0951 7.09256 16.3217 7.54589 15.8684L10.9992 12.4151C11.5526 11.8617 12.4526 11.8617 13.0059 12.4151L14.3192 13.7284L16.4592 15.8684C16.9059 16.3217 16.5859 17.0951 15.9459 17.0951Z" fill="#F6F6F6"/>
</svg>
