<svg width="24" height="24" viewBox="0 0 24 24" fill="none" xmlns="http://www.w3.org/2000/svg">
<rect width="24" height="24" rx="12" transform="matrix(-1 0 0 1 24 0)" fill="#FE4545"/>
<path d="M8.05423 12.905L12.2076 12.905L15.9476 12.905C16.5876 12.905 16.9076 13.6783 16.4542 14.1316L13.0009 17.585C12.4476 18.1383 11.5476 18.1383 10.9942 17.585L9.68089 16.2716L7.54089 14.1316C7.09423 13.6783 7.41423 12.905 8.05423 12.905Z" fill="#F6F6F6"/>
<path d="M8.05423 6.90495L12.2076 6.90495L15.9476 6.90495C16.5876 6.90495 16.9076 7.67829 16.4542 8.13163L13.0009 11.585C12.4476 12.1383 11.5476 12.1383 10.9942 11.585L9.68089 10.2716L7.54089 8.13163C7.09423 7.67829 7.41423 6.90495 8.05423 6.90495Z" fill="#F6F6F6"/>
</svg>
