<svg width="24" height="24" viewBox="0 0 24 24" fill="none" xmlns="http://www.w3.org/2000/svg">
<path d="M12 21.75C6.62 21.75 2.25 17.37 2.25 12C2.25 6.63 6.62 2.25 12 2.25C17.38 2.25 21.75 6.63 21.75 12C21.75 17.37 17.37 21.75 12 21.75ZM12 3.74C7.45 3.75 3.75 7.45 3.75 12C3.75 16.55 7.45 20.25 12 20.25C16.55 20.25 20.25 16.55 20.25 12C20.25 7.45 16.55 3.75 12 3.75V3.74Z" fill="#454660"/>
<path d="M12 13.76C11.59 13.76 11.25 13.42 11.25 13C11.25 12.19 11.88 11.68 12.44 11.23C13.02 10.7699 13.4 10.43 13.4 9.98996C13.35 9.27996 12.7 8.69996 11.94 8.73996C11.17 8.69996 10.57 9.17996 10.41 9.84996C10.32 10.25 9.91998 10.51 9.50998 10.41C9.10998 10.32 8.85998 9.90996 8.94998 9.50996C9.26998 8.13996 10.52 7.19996 11.93 7.23996C13.43 7.15996 14.8 8.36995 14.9 9.93995C14.9 11.18 14.02 11.88 13.38 12.39C13.16 12.57 12.78 12.87 12.75 13C12.75 13.41 12.42 13.74 12 13.74V13.76Z" fill="#454660"/>
<path d="M12.0001 16.63C11.5201 16.63 11.1201 16.24 11.1201 15.75C11.1201 15.26 11.5101 14.87 12.0001 14.87C12.2401 14.87 12.4501 14.98 12.5901 15.16C12.7601 15.3 12.8801 15.51 12.8801 15.75C12.8801 16.23 12.4901 16.63 12.0001 16.63Z" fill="#454660"/>
<path d="M12.13 16.5C11.89 16.5 11.68 16.39 11.54 16.22C11.37 16.08 11.25 15.87 11.25 15.63C11.25 15.22 11.59 14.88 12 14.88C12.48 14.88 12.88 15.27 12.88 15.76C12.88 16.17 12.54 16.51 12.13 16.51V16.5Z" fill="#454660"/>
</svg>
