<svg width="30" height="30" viewBox="0 0 30 30" fill="none" xmlns="http://www.w3.org/2000/svg">
<path d="M15.025 3.6375C10.8875 3.6375 7.52499 7 7.52499 11.1375V14.75C7.52499 15.5125 7.19999 16.675 6.81249 17.325L5.37499 19.7125C4.48749 21.1875 5.09999 22.825 6.72499 23.375C12.1125 25.175 17.925 25.175 23.3125 23.375C24.825 22.875 25.4875 21.0875 24.6625 19.7125L23.225 17.325C22.85 16.675 22.525 15.5125 22.525 14.75V11.1375C22.525 7.0125 19.15 3.6375 15.025 3.6375Z" stroke="#454660" stroke-width="1.5" stroke-miterlimit="10" stroke-linecap="round"/>
<path d="M17.3375 4C16.95 3.8875 16.55 3.8 16.1375 3.75C14.9375 3.6 13.7875 3.6875 12.7125 4C13.075 3.075 13.975 2.425 15.025 2.425C16.075 2.425 16.975 3.075 17.3375 4Z" stroke="#454660" stroke-width="1.5" stroke-miterlimit="10" stroke-linecap="round" stroke-linejoin="round"/>
<path d="M18.775 23.825C18.775 25.8875 17.0875 27.575 15.025 27.575C14 27.575 13.05 27.15 12.375 26.475C11.7 25.8 11.275 24.85 11.275 23.825" stroke="#454660" stroke-width="1.5" stroke-miterlimit="10"/>
</svg>
